#!OML:ASF F:\VICON\USERDATA\INSTALL\rory3\rory3.ASF
:FULLY-SPECIFIED
:DEGREES
103
root -5.766916758329343 17.983198119860965 -2.0723593964886344 -176.6319981701166 -5.530884868473954 -185.8371495874446
lfemur -31.26999008859654 -20.434391343369715 -12.309631460742075
ltibia 28.549863853933083
lfoot 43.959883261489935 -43.65345682966377
ltoes 62.96161410879519
rfemur 16.906159610215514 -6.77595420326766 22.04693758884003
rtibia 17.61086147711235
rfoot 32.10756379954026 -31.008322844926695
rtoes 19.775779863872266
lowerback -7.42631559617203 11.991431027547252 14.216844138384038
upperback -11.008893172077954 17.794786057885172 2.2158189090785827
thorax -5.648671629960322 8.91882942583198 -4.012055695729696
lowerneck -17.122164558586135 -16.877199419053046 -1.3479345683989432
upperneck 5.832545582756426 -22.724372661185736 3.3504936843245963
head 4.423719418205106 -10.92304670743273 -1.0527576336789206
lclavicle -6.7336217748843084e-15 -4.957380714775316e-15
lhumerus 63.565591472346654 11.385605942251857 53.348153137166804
lradius 45.498360770912434
lwrist 31.30826494046849
lhand -15.252151323347608 13.47808685404921
lfingers 7.125020000000003
lthumb -169.0843822200092 380.21293780456074
rclavicle -6.7336217748843084e-15 -4.957380714775316e-15
rhumerus 101.7671308508792 30.040667010387935 -57.30556370824771
rradius 42.83157093457984
rwrist -11.482154399790364
rhand -41.906005758215585 23.41192772001323
rfingers 7.125020000000003
rthumb -14.801926398270826 -5.8942725966735106
104
root -5.745247456997731 17.99026055193587 -2.026123761759305 -176.98157687755435 -5.033063687034755 -186.2811754221225
lfemur -31.418363606324235 -20.38266002728866 -12.176070994164705
ltibia 28.342440026133218
lfoot 43.00613467988702 -43.908646722023235
ltoes 62.00734996846808
rfemur 16.37753230153478 -6.656602193923326 21.79365863048466
rtibia 17.943996637714626
rfoot 31.359900131417433 -30.842764889779495
rtoes 19.334881402030156
lowerback -7.17931233199618 11.769527937504533 13.823677102946554
upperback -10.696008509293815 17.5019458420059 2.2583098534480435
thorax -5.5613629273582355 8.815816859550578 -3.875910691819655
lowerneck -17.63414793973205 -16.50300744189068 -1.239350165522626
upperneck 5.759273092674668 -22.210538923601106 3.265134785406878
head 4.480989047374351 -10.653025956078883 -1.0639177834883904
lclavicle -7.103041145841351e-15 -5.218437850558304e-15
lhumerus 62.40723470479852 9.235300157872334 54.78437514841491
lradius 44.40754875382388
lwrist 31.65378968607515
lhand -14.607324176749177 13.6245604389421
lfingers 7.125020000000003
lthumb -168.46292305469467 382.35222533021965
rclavicle -7.103041145841352e-15 -5.218437850558304e-15
rhumerus 99.18148261079405 30.35080664383669 -58.352633042654276
rradius 41.53621677910273
rwrist -12.028414798907804
rhand -41.39913938002222 22.728328860659175
rfingers 7.125020000000003
rthumb -14.312568222198319 -6.566934889394057
105
root -5.719535626884442 17.997514784398874 -1.9705535617942957 -176.72792147642159 -4.5294378507881135 -186.11637697612701
lfemur -31.420752573348558 -20.298220747137112 -12.034795122878638
ltibia 28.149627781286593
lfoot 42.17044523560001 -44.05928781871539
ltoes 61.26868180346882
rfemur 15.9004532377351 -6.496388153240442 21.59677226764182
rtibia 18.27345115425871
rfoot 30.736674323960187 -30.571042165999756
rtoes 18.99654410445667
lowerback -6.930396141951786 11.619173772809315 13.433160593805534
upperback -10.431412415951508 17.241842216141066 2.266907977726588
thorax -5.4938324069289735 8.695401088916746 -3.7519114535504485
lowerneck -18.027549255983644 -16.117455096608293 -1.1705870997191552
upperneck 5.6522836806823715 -21.685325821070542 3.2304527130828617
head 4.530214124477866 -10.377948509843995 -1.0520838857817607
lclavicle -7.287142313848829e-15 -5.350466124506031e-15
lhumerus 61.31478309514341 7.5617747570467415 56.28374285919389
lradius 43.53607744822978
lwrist 32.05426858429586
lhand -13.982512819728584 13.710101649703525
lfingers 7.125020000000003
lthumb -167.861321414986 376.9555387585748
rclavicle -7.287142313848829e-15 -5.350466124506031e-15
rhumerus 96.7663423186911 30.62211909342367 -59.318448398504756
rradius 40.484974001612756
rwrist -12.339915324877648
rhand -40.86237730868523 22.10252307746152
rfingers 7.125020000000003
rthumb -13.794703425254708 -7.189389373127559
106
root -5.691397541307708 18.003819997908185 -1.9049042577349082 -176.18498397474127 -3.919386839768311 -185.72705452362055
lfemur -31.380845377534435 -20.118217162893774 -11.790351656713227
ltibia 27.943665991171628
lfoot 41.520741776973466 -44.13829513840662
ltoes 61.053314719792965
rfemur 15.62178434389692 -6.289003309302425 21.460762958110017
rtibia 18.623593781338975
rfoot 30.359199362673245 -30.082120645764455
rtoes 18.673770200660023
lowerback -6.67127473180486 11.56407828703452 13.138492774242525
upperback -10.120081128025626 17.097967193778757 2.276000249482434
thorax -5.386347882484952 8.622038582709013 -3.6132331672590627
lowerneck -18.4428232024281 -15.598520857861137 -1.1018266074327516
upperneck 5.677478771705127 -20.959497069739545 3.2132819379726207
head 4.6231400389284865 -10.014458140729392 -1.041995044019225
lclavicle -6.89218481610476e-15 -5.070225393158999e-15
lhumerus 60.307407748497845 6.150666718265871 58.113264640243884
lradius 42.77708230442198
lwrist 32.40558961319283
lhand -13.21445925569907 13.980194608171528
lfingers 7.125020000000003
lthumb -167.12207307018917 377.1458361097638
rclavicle -6.89218481610476e-15 -5.070225393158999e-15
rhumerus 94.43935802491816 31.03966584218739 -60.38074643999461
rradius 39.6749012247922
rwrist -12.499410136531814
rhand -40.16988508920388 21.59729108685708
rfingers 7.125020000000003
rthumb -13.127454378199573 -7.699890924491298
107
root -5.671056919742648 18.008683403685122 -1.8757508989762939 -176.87616467123672 -3.7620600103861754 -186.51048640806533
lfemur -31.519970770932176 -20.176612468542935 -11.76434804547658
ltibia 27.713171612022357
lfoot 40.842090792650964 -44.59353699082102
ltoes 60.48464399459549
rfemur 15.165548971852381 -6.235207602957111 21.233292212861812
rtibia 18.81146018448895
rfoot 29.788160989606105 -29.99383065174362
rtoes 18.41157120929841
lowerback -6.534450829382778 11.434902508098789 12.69562935570097
upperback -9.928397013497325 16.815041581346957 2.2165135187570586
thorax -5.334482806179823 8.465352861581342 -3.534926060647421
lowerneck -18.85907426769408 -15.431083420420801 -1.13965310950809
upperneck 5.534808784710588 -20.722888858231748 3.169753308097544
head 4.652845520543515 -9.879895096987815 -1.0284400430293705
lclavicle -7.502269273510475e-15 -5.502933786104196e-15
lhumerus 58.66926295875218 4.668490271709818 59.716862147171994
lradius 41.95634590837847
lwrist 32.54288381048153
lhand -12.691599047214417 13.991586747465714
lfingers 7.125020000000003
lthumb -166.61853698621138 374.95312393557697
rclavicle -7.502269273510473e-15 -5.502933786104197e-15
rhumerus 91.53577866421072 31.145358097825984 -61.64893066414352
rradius 38.54203095561782
rwrist -12.841833813303943
rhand -39.78847878473451 20.923728748373545
rfingers 7.125020000000003
rthumb -12.759030913869875 -8.365798256560947
108
root -5.6438734722960335 18.013470677116008 -1.8214763890187275 -176.2317703652972 -3.3248824362116096 -186.00953658037025
lfemur -31.44645833900684 -20.06009943402268 -11.612187932704616
ltibia 27.499208768222605
lfoot 40.3146521928903 -44.74852857617512
ltoes 60.393869223076635
rfemur 14.863535054820257 -6.068978762758953 21.12054510353163
rtibia 19.068100791356496
rfoot 29.49126744358341 -29.57819826304769
rtoes 18.14786009609209
lowerback -6.331187005035757 11.418979427466473 12.373390704179366
upperback -9.704806989734129 16.67199695485976 2.168888288529061
thorax -5.262517930962057 8.360664326285278 -3.4405759055780933
lowerneck -19.17877713193678 -15.050021964573121 -1.169528887365316
upperneck 5.480405137274786 -20.186394006962026 3.153373374377235
head 4.718191872717451 -9.611565781037381 -1.003686725642876
lclavicle -7.345320915336734e-15 -5.393066199505602e-15
lhumerus 57.46447472496635 3.8807494902563455 61.60351985599098
lradius 41.323672144467004
lwrist 32.7113712564137
lhand -12.134239288165384 14.122898521542718
lfingers 7.125020000000003
lthumb -166.08255620105888 370.4866741026731
rclavicle -7.345320915336734e-15 -5.393066199505602e-15
rhumerus 89.07497387674087 31.248844420511347 -62.845346580417036
rradius 37.811488922662036
rwrist -12.738080789767263
rhand -39.17317337046858 20.41957638321151
rfingers 7.125020000000003
rthumb -12.166343781805256 -8.885943609119645
109
root -5.620152421832257 18.017519905263295 -1.7868937531217757 -176.647407273883 -3.134374624125151 -186.55154636414488
lfemur -31.491045885767697 -20.059634277497018 -11.517925776241935
ltibia 27.2693428801468
lfoot 39.87557743746789 -45.147002998371875
ltoes 60.36292996944074
rfemur 14.652168523103896 -6.001648949391377 20.994175629889227
rtibia 19.252609888614053
rfoot 29.19625834325958 -29.324830996599445
rtoes 17.878204907373142
lowerback -6.213537994781641 11.400075895066443 12.071472757276423
upperback -9.512286306628436 16.54302305850092 2.1153349202804606
thorax -5.1944454005982745 8.272312753176836 -3.365410835214191
lowerneck -19.53485674002423 -14.80750577324063 -1.2374786864828364
upperneck 5.414413980591007 -19.83460938152596 3.1480643613279193
head 4.7683302461899935 -9.429962338321198 -0.9811895105139078
lclavicle -7.417041914882474e-15 -5.443597956789591e-15
lhumerus 55.99025742780572 3.1138167367445746 63.48489803644367
lradius 40.65658256254379
lwrist 32.76060072039762
lhand -11.673915820201199 14.231226206809465
lfingers 7.125020000000003
lthumb -165.6395355289336 371.42748909739015
rclavicle -7.417041914882474e-15 -5.443597956789592e-15
rhumerus 86.34463190383461 31.334327720833905 -64.20928640024422
rradius 36.90658751962337
rwrist -12.702060384937738
rhand -38.69887089236449 19.884613163530606
rfingers 7.125020000000003
rthumb -11.709258971277148 -9.423631013083737
110
root -5.599539130565058 18.021331674586484 -1.7573118705942643 -176.6711191578857 -2.976108211486384 -186.67760212035813
lfemur -31.517201359163444 -20.042863474412965 -11.516432170546212
ltibia 27.045561008236874
lfoot 39.36143091692442 -45.54945698627343
ltoes 60.03968854058182
rfemur 14.290027981483941 -5.947348098308603 20.844107612749575
rtibia 19.387750992356537
rfoot 28.834814846210087 -29.16598591832549
rtoes 17.603546753201734
lowerback -6.11341695989034 11.354533266716121 11.712697069595938
upperback -9.375380759659668 16.362784944450862 2.036171912803527
thorax -5.1541635546806415 8.148685111594366 -3.314991810912116
lowerneck -19.810269280262887 -14.662940827788852 -1.3521189450569906
upperneck 5.2751465685109995 -19.623567449466226 3.1280758990752506
head 4.79438493800008 -9.317437720804916 -0.9510039877973414
lclavicle -7.816017501818246e-15 -5.728309285222077e-15
lhumerus 54.45017816439828 2.6316102614715966 65.21516445762178
lradius 39.99005456908628
lwrist 32.67398815832513
lhand -11.418244401581436 14.245337624087126
lfingers 7.125020000000003
lthumb -165.39394478496993 367.4458687997988
rclavicle -7.816017501818246e-15 -5.728309285222077e-15
rhumerus 83.48630521823063 31.09414907301798 -65.64119517882722
rradius 35.98382236739651
rwrist -12.542315312467771
rhand -38.30287303634421 19.313570988631533
rfingers 7.125020000000003
rthumb -11.327490048234736 -10.002783722831264
